<svg width="292" height="100" viewBox="0 0 292 100" fill="none" xmlns="http://www.w3.org/2000/svg">
<mask id="mask0_3184_4246" style="mask-type:luminance" maskUnits="userSpaceOnUse" x="0" y="0" width="292" height="100">
<path d="M291.25 0.793701H0.75V99.2062H291.25V0.793701Z" fill="white"/>
</mask>
<g mask="url(#mask0_3184_4246)">
<path d="M9.17277 63.5262C10.2521 68.6198 13.7061 71.3452 18.1675 71.3452C22.341 71.3452 25.9389 68.6198 27.0182 63.9567L34.3579 32.0339L41.7696 63.7414C42.9209 68.6198 46.3749 71.3452 50.6923 71.3452C55.3696 71.3452 58.5357 68.4044 59.6151 63.3111L68.25 22.0626H57.7441L50.4045 60.2981C50.3325 60.5134 50.3325 60.6568 50.2606 60.6568C50.1166 60.6568 50.1166 60.5851 50.0447 60.2981L42.9209 29.6666C41.5537 23.856 38.6754 21.3452 34.3579 21.3452C30.0404 21.3452 27.0902 23.8559 25.7949 29.7383L18.8151 60.2981C18.7431 60.5851 18.6712 60.6568 18.5992 60.6568C18.5273 60.6568 18.4553 60.5851 18.3833 60.2981L10.7558 22.0626H0.25L9.17277 63.5262Z" fill="#0A3D62"/>
<path d="M168.397 70.3452C178.887 70.3452 187.25 64.1678 187.25 55.6735C187.25 44.9328 177.567 42.4055 170.231 41.2121C164.876 40.2995 160.768 39.3166 160.768 35.5258C160.768 32.6476 163.555 30.8223 167.59 30.8223C172.579 30.8223 175.806 32.9283 177.42 35.947L186.37 31.6648C183.216 24.9255 176.173 21.3452 168.03 21.3452C157.833 21.3452 150.057 27.6633 150.057 35.947C150.057 46.6176 160.108 49.1448 167.517 50.3382C172.652 51.1807 176.54 51.8125 176.54 55.7437C176.54 59.1134 173.019 60.9386 168.397 60.9386C163.262 60.9386 159.814 59.1836 158.2 55.7437L149.25 60.026C152.405 66.765 159.521 70.3452 168.397 70.3452Z" fill="#0A3D62"/>
<path d="M128.103 70.3452C117.613 70.3452 109.25 64.1678 109.25 55.6735C109.25 44.9328 118.933 42.4055 126.269 41.2121C131.624 40.2995 135.732 39.3166 135.732 35.5258C135.732 32.6476 132.945 30.8223 128.91 30.8223C123.922 30.8223 120.694 32.9283 119.08 35.947L110.13 31.6648C113.284 24.9255 120.327 21.3452 128.47 21.3452C138.667 21.3452 146.443 27.6633 146.443 35.947C146.443 46.6176 136.393 49.1448 128.983 50.3382C123.848 51.1807 119.96 51.8125 119.96 55.7437C119.96 59.1134 123.481 60.9386 128.103 60.9386C133.238 60.9386 136.686 59.1836 138.3 55.7437L147.25 60.026C144.095 66.765 136.979 70.3452 128.103 70.3452Z" fill="#FED064"/>
<path d="M128.103 70.3452C117.613 70.3452 109.25 64.1678 109.25 55.6735C109.25 44.9328 118.933 42.4055 126.269 41.2121C131.624 40.2995 135.732 39.3166 135.732 35.5258C135.732 32.6476 132.945 30.8223 128.91 30.8223C123.922 30.8223 120.694 32.9283 119.08 35.947L110.13 31.6648C113.284 24.9255 120.327 21.3452 128.47 21.3452C138.667 21.3452 146.443 27.6633 146.443 35.947C146.443 46.6176 136.393 49.1448 128.983 50.3382C123.848 51.1807 119.96 51.8125 119.96 55.7437C119.96 59.1134 123.481 60.9386 128.103 60.9386C133.238 60.9386 136.686 59.1836 138.3 55.7437L147.25 60.026C144.095 66.765 136.979 70.3452 128.103 70.3452Z" fill="#FED064"/>
<path d="M192.25 22.3452V70.3452H203.25V22.3452H192.25Z" fill="#0A3D62"/>
<path d="M222.293 69.4347V34.5751L241.511 66.7052C243.1 69.2946 245.773 70.3452 248.88 70.3452C252.71 70.3452 256.25 67.6851 256.25 62.995V22.3252H246.279V56.975L227.061 25.0552C225.472 22.4652 222.943 21.3452 219.764 21.3452C215.79 21.3452 212.25 24.0752 212.25 28.7652V69.4347H222.293Z" fill="#0A3D62"/>
<path fill-rule="evenodd" clip-rule="evenodd" d="M106.25 70.3452V61.0021H88.2424L88.239 61.003L86.2217 61.9039L82.9555 61.895C82.8803 62.0591 82.7141 62.173 82.5217 62.1726L81.941 62.1709C81.6783 62.1702 81.4665 61.9568 81.4672 61.6942L81.499 50.1637C81.4997 49.9011 81.7128 49.6888 81.9755 49.6895L82.5562 49.6911C82.7486 49.6916 82.9141 49.8065 82.9886 49.9714L86.2541 49.9803C86.2541 49.9803 87.441 50.6111 88.2666 50.8923C88.3914 50.9348 88.53 50.9767 88.6734 51.017H104.325V41.6737H88.5403L88.239 41.7459L86.2217 42.6468L82.9555 42.6378C82.8803 42.802 82.7141 42.9159 82.5217 42.9154L81.941 42.9138C81.6783 42.913 81.4665 42.6997 81.4672 42.437L81.499 30.9066C81.4997 30.644 81.7128 30.4317 81.9755 30.4324L82.5562 30.4339C82.7486 30.4345 82.9141 30.5494 82.9886 30.7143L86.2541 30.7231C86.2541 30.7231 87.441 31.354 88.2666 31.6351C88.319 31.653 88.3741 31.6709 88.4314 31.6885H105.822V22.3452H80.4459C73.8162 22.3452 71.25 25.8401 71.25 31.3319V61.4301C71.25 66.9219 73.8162 70.3452 80.4459 70.3452H106.25Z" fill="#0A3D62"/>
<path fill-rule="evenodd" clip-rule="evenodd" d="M264.213 33.3452C263.925 33.3944 263.705 33.6274 263.694 33.9135L262.25 69.7214C262.237 70.0623 262.524 70.3452 262.883 70.3452H274.616C274.976 70.3452 275.263 70.0623 275.25 69.7214L273.806 33.9135C273.798 33.6842 273.654 33.4891 273.45 33.3952C272.111 34.1205 270.548 34.5373 268.877 34.5373C267.168 34.5373 265.57 34.1013 264.213 33.3452Z" fill="#FED064"/>
<path d="M268.75 32.3452C273.445 32.3452 277.25 28.7635 277.25 24.3453C277.25 19.9269 273.445 16.3452 268.75 16.3452C264.055 16.3452 260.25 19.9269 260.25 24.3453C260.25 28.7635 264.055 32.3452 268.75 32.3452Z" fill="#FED064"/>
<path d="M49.25 83.8589V78.6572H49.9677V83.2123H52.6878V83.8589H49.25ZM57.9262 83.9034C57.5195 83.9034 57.1607 83.8166 56.8497 83.6431C56.5435 83.4704 56.3042 83.232 56.132 82.9302C55.9645 82.6277 55.8807 82.2815 55.8807 81.89C55.8807 81.4986 55.9621 81.1516 56.1247 80.8491C56.2922 80.5473 56.5195 80.3119 56.8066 80.1435C57.0985 79.97 57.4262 79.8833 57.7898 79.8833C58.1583 79.8833 58.4836 79.9678 58.7659 80.1362C59.0482 80.3046 59.2683 80.5422 59.4262 80.8491C59.5888 81.1516 59.6702 81.5059 59.6702 81.9119C59.6702 81.9418 59.6678 81.9768 59.663 82.0161C59.663 82.0555 59.6606 82.0927 59.6558 82.1277H56.419V81.6145H59.297L59.0171 81.7931C59.0219 81.5409 58.9717 81.3149 58.8664 81.1166C58.7611 80.9191 58.6152 80.7653 58.4286 80.6559C58.2467 80.5422 58.0338 80.4854 57.7898 80.4854C57.5506 80.4854 57.3377 80.5422 57.1511 80.6559C56.9645 80.7653 56.8186 80.9213 56.7133 81.1247C56.608 81.3229 56.5554 81.5504 56.5554 81.8084V81.9272C56.5554 82.1896 56.6128 82.4251 56.7277 82.6328C56.8472 82.8362 57.0124 82.9944 57.2228 83.1088C57.4334 83.2225 57.675 83.2794 57.9477 83.2794C58.1726 83.2794 58.376 83.24 58.5578 83.1606C58.7444 83.0811 58.907 82.9623 59.0458 82.8041L59.4262 83.2648C59.2539 83.4726 59.0386 83.6307 58.7802 83.7401C58.5266 83.8494 58.242 83.9034 57.9262 83.9034ZM65.1628 85.3452C64.8135 85.3452 64.4739 85.2935 64.1437 85.1892C63.8184 85.0901 63.5528 84.9465 63.347 84.7584L63.6772 84.2081C63.8542 84.367 64.0719 84.4909 64.3303 84.5798C64.5887 84.6739 64.859 84.7212 65.1413 84.7212C65.591 84.7212 65.9212 84.6119 66.1317 84.3939C66.3423 84.176 66.4475 83.8443 66.4475 83.3982V82.5658L66.5193 81.7858L66.4834 80.9978V79.9205H67.1365V83.3239C67.1365 84.0178 66.969 84.5281 66.6341 84.8546C66.2992 85.1819 65.8088 85.3452 65.1628 85.3452ZM65.0767 83.6956C64.7083 83.6956 64.3782 83.6162 64.0863 83.458C63.7992 83.294 63.5696 83.0687 63.3973 82.7815C63.2298 82.4943 63.1461 82.1619 63.1461 81.7858C63.1461 81.4046 63.2298 81.0722 63.3973 80.7901C63.5696 80.5029 63.7992 80.2798 64.0863 80.1209C64.3782 79.9627 64.7083 79.8833 65.0767 79.8833C65.4021 79.8833 65.6987 79.9525 65.9667 80.0917C66.2346 80.2251 66.4475 80.4336 66.6054 80.7157C66.7681 80.9978 66.8494 81.355 66.8494 81.7858C66.8494 82.2115 66.7681 82.5658 66.6054 82.8486C66.4475 83.1307 66.2346 83.3435 65.9667 83.4871C65.6987 83.6264 65.4021 83.6956 65.0767 83.6956ZM65.1557 83.0717C65.4092 83.0717 65.6341 83.017 65.8303 82.9076C66.0265 82.799 66.1796 82.6474 66.2896 82.4542C66.4044 82.2611 66.4618 82.0387 66.4618 81.7858C66.4618 81.5329 66.4044 81.3105 66.2896 81.1166C66.1796 80.9235 66.0265 80.7755 65.8303 80.6713C65.6341 80.5619 65.4092 80.508 65.1557 80.508C64.9021 80.508 64.6748 80.5619 64.4739 80.6713C64.2777 80.7755 64.1222 80.9235 64.0074 81.1166C63.8973 81.3105 63.8423 81.5329 63.8423 81.7858C63.8423 82.0387 63.8973 82.2611 64.0074 82.4542C64.1222 82.6474 64.2777 82.799 64.4739 82.9076C64.6748 83.017 64.9021 83.0717 65.1557 83.0717ZM73.6852 83.8589V83.0265L73.6491 82.8705V81.4512C73.6491 81.1494 73.563 80.9162 73.3908 80.7529C73.2235 80.5845 72.9693 80.5 72.6298 80.5C72.4048 80.5 72.1847 80.54 71.9694 80.6188C71.7542 80.6931 71.5723 80.7952 71.4244 80.9235L71.1369 80.3884C71.3334 80.2251 71.5681 80.1012 71.8403 80.0174C72.118 79.9277 72.4076 79.8833 72.7089 79.8833C73.2304 79.8833 73.6325 80.0145 73.9144 80.2776C74.197 80.54 74.3379 80.941 74.3379 81.4811V83.8589H73.6852ZM72.4361 83.9034C72.1541 83.9034 71.9049 83.8538 71.6896 83.7547C71.4792 83.6555 71.3167 83.5199 71.2015 83.3465C71.0869 83.1679 71.0293 82.9674 71.0293 82.7444C71.0293 82.5315 71.0772 82.3383 71.173 82.1649C71.2737 81.9914 71.4341 81.8529 71.6542 81.7486C71.8785 81.6444 72.1805 81.5926 72.5583 81.5926H73.7637V82.1051H72.5867C72.2423 82.1051 72.0104 82.1649 71.891 82.2837C71.7708 82.4025 71.7111 82.5461 71.7111 82.7145C71.7111 82.9076 71.7854 83.0636 71.934 83.1825C72.0819 83.2969 72.2882 83.3537 72.5513 83.3537C72.8096 83.3537 73.0346 83.294 73.2255 83.1752C73.4221 83.0563 73.563 82.8829 73.6491 82.6554L73.7852 83.1453C73.6943 83.3785 73.5345 83.5644 73.3047 83.7029C73.0749 83.837 72.7853 83.9034 72.4361 83.9034ZM78.484 83.8589V78.3452H79.1728V83.8589H78.484ZM89.2551 83.8589V79.3038H87.533V78.6572H91.6882V79.3038H89.9661V83.8589H89.2551ZM96.5418 83.9034C96.1349 83.9034 95.7759 83.8166 95.4648 83.6431C95.1586 83.4704 94.9198 83.232 94.7476 82.9302C94.5802 82.6277 94.4962 82.2815 94.4962 81.89C94.4962 81.4986 94.5774 81.1516 94.7399 80.8491C94.908 80.5473 95.135 80.3119 95.4218 80.1435C95.7141 79.97 96.0419 79.8833 96.405 79.8833C96.7737 79.8833 97.0994 79.9678 97.3813 80.1362C97.6639 80.3046 97.884 80.5422 98.0416 80.8491C98.2041 81.1516 98.2854 81.5059 98.2854 81.9119C98.2854 81.9418 98.2833 81.9768 98.2784 82.0161C98.2784 82.0555 98.2763 82.0927 98.2715 82.1277H95.0343V81.6145H97.9125L97.6327 81.7931C97.6375 81.5409 97.5868 81.3149 97.482 81.1166C97.3764 80.9191 97.2306 80.7653 97.0438 80.6559C96.8619 80.5422 96.6494 80.4854 96.405 80.4854C96.1661 80.4854 95.953 80.5422 95.7669 80.6559C95.5801 80.7653 95.4343 80.9213 95.3287 81.1247C95.2232 81.3229 95.1711 81.5504 95.1711 81.8084V81.9272C95.1711 82.1896 95.2281 82.4251 95.3433 82.6328C95.4627 82.8362 95.628 82.9944 95.8384 83.1088C96.0488 83.2225 96.2904 83.2794 96.5633 83.2794C96.7883 83.2794 96.9917 83.24 97.173 83.1606C97.3598 83.0811 97.5222 82.9623 97.6611 82.8041L98.0416 83.2648C97.8694 83.4726 97.6542 83.6307 97.3959 83.7401C97.1424 83.8494 96.8577 83.9034 96.5418 83.9034ZM103.771 83.9034C103.383 83.9034 103.036 83.8166 102.73 83.6431C102.429 83.4704 102.192 83.232 102.02 82.9302C101.847 82.6277 101.761 82.2815 101.761 81.89C101.761 81.4986 101.847 81.1516 102.02 80.8491C102.192 80.5473 102.429 80.3119 102.73 80.1435C103.036 79.97 103.383 79.8833 103.771 79.8833C104.115 79.8833 104.422 79.9554 104.69 80.099C104.962 80.2375 105.173 80.446 105.321 80.723L104.797 81.0722C104.673 80.879 104.52 80.7383 104.338 80.6487C104.161 80.5546 103.969 80.508 103.764 80.508C103.515 80.508 103.292 80.5648 103.097 80.6785C102.9 80.7923 102.745 80.9534 102.63 81.1618C102.515 81.3645 102.458 81.6072 102.458 81.89C102.458 82.1721 102.515 82.4171 102.63 82.6255C102.745 82.8333 102.9 82.9944 103.097 83.1088C103.292 83.2225 103.515 83.2794 103.764 83.2794C103.969 83.2794 104.161 83.2349 104.338 83.1453C104.52 83.0512 104.673 82.9076 104.797 82.7145L105.321 83.0563C105.173 83.329 104.962 83.5396 104.69 83.6883C104.422 83.8319 104.115 83.9034 103.771 83.9034ZM111.066 79.8833C111.377 79.8833 111.65 79.9452 111.884 80.0692C112.123 80.1931 112.31 80.3811 112.444 80.6341C112.578 80.8863 112.645 81.2063 112.645 81.5926V83.8589H111.956V81.6743C111.956 81.293 111.865 81.0058 111.683 80.8127C111.506 80.6188 111.255 80.5226 110.93 80.5226C110.685 80.5226 110.473 80.5721 110.291 80.6713C110.109 80.7704 109.968 80.9162 109.867 81.1093C109.772 81.3025 109.724 81.5431 109.724 81.8303V83.8589H109.035V78.3452H109.724V80.9832L109.588 80.7011C109.712 80.4431 109.904 80.2426 110.162 80.099C110.42 79.9554 110.722 79.8833 111.066 79.8833ZM122.336 81.1166H124.927V81.7559H122.336V81.1166ZM122.408 83.8589H121.69V78.6572H125.235V79.3038H122.408V83.8589ZM130.526 83.9034C130.143 83.9034 129.804 83.8166 129.507 83.6431C129.211 83.4704 128.976 83.232 128.804 82.9302C128.631 82.6226 128.545 82.2764 128.545 81.89C128.545 81.4986 128.631 81.1516 128.804 80.8491C128.976 80.5473 129.211 80.3119 129.507 80.1435C129.804 79.97 130.143 79.8833 130.526 79.8833C130.904 79.8833 131.242 79.97 131.538 80.1435C131.839 80.3119 132.074 80.5473 132.241 80.8491C132.414 81.1465 132.5 81.4935 132.5 81.89C132.5 82.2815 132.414 82.6277 132.241 82.9302C132.074 83.232 131.839 83.4704 131.538 83.6431C131.242 83.8166 130.904 83.9034 130.526 83.9034ZM130.526 83.2794C130.77 83.2794 130.988 83.2225 131.179 83.1088C131.376 82.9944 131.528 82.8333 131.639 82.6255C131.748 82.4127 131.803 82.167 131.803 81.89C131.803 81.6072 131.748 81.3645 131.639 81.1618C131.528 80.9534 131.376 80.7923 131.179 80.6785C130.988 80.5648 130.77 80.508 130.526 80.508C130.282 80.508 130.065 80.5648 129.873 80.6785C129.681 80.7923 129.529 80.9534 129.414 81.1618C129.299 81.3645 129.241 81.6072 129.241 81.89C129.241 82.167 129.299 82.4127 129.414 82.6255C129.529 82.8333 129.681 82.9944 129.873 83.1088C130.065 83.2225 130.282 83.2794 130.526 83.2794ZM136.323 83.8589V79.9205H136.983V80.9905L136.918 80.723C137.024 80.4504 137.201 80.2426 137.449 80.099C137.698 79.9554 138.005 79.8833 138.368 79.8833V80.5743C138.339 80.5692 138.311 80.567 138.282 80.567C138.258 80.567 138.234 80.567 138.21 80.567C137.842 80.567 137.55 80.6807 137.335 80.9089C137.119 81.137 137.012 81.4665 137.012 81.8973V83.8589H136.323ZM150.638 78.6572H151.356V83.8589H150.638V78.6572ZM147.753 83.8589H147.036V78.6572H147.753V83.8589ZM150.703 81.5409H147.681V80.8943H150.703V81.5409ZM157.232 83.9034C156.906 83.9034 156.619 83.8414 156.37 83.7175C156.126 83.5943 155.935 83.4055 155.796 83.1533C155.662 82.8952 155.595 82.5738 155.595 82.1867V79.9205H156.284V82.1051C156.284 82.4914 156.373 82.7815 156.55 82.9747C156.731 83.1679 156.985 83.2648 157.31 83.2648C157.55 83.2648 157.757 83.2153 157.935 83.1161C158.112 83.0119 158.248 82.8632 158.344 82.67C158.439 82.4717 158.487 82.2341 158.487 81.9564V79.9205H159.177V83.8589H158.523V82.7961L158.631 83.0789C158.507 83.3414 158.32 83.5447 158.071 83.6883C157.823 83.8319 157.542 83.9034 157.232 83.9034ZM168.117 79.8833C168.423 79.8833 168.693 79.9452 168.928 80.0692C169.162 80.1931 169.344 80.3811 169.473 80.6341C169.607 80.8863 169.674 81.2063 169.674 81.5926V83.8589H168.985V81.6743C168.985 81.293 168.899 81.0058 168.726 80.8127C168.554 80.6188 168.313 80.5226 168.001 80.5226C167.772 80.5226 167.571 80.5721 167.399 80.6713C167.227 80.7704 167.093 80.9162 166.997 81.1093C166.906 81.3025 166.861 81.5431 166.861 81.8303V83.8589H166.172V81.6743C166.172 81.293 166.086 81.0058 165.914 80.8127C165.745 80.6188 165.504 80.5226 165.189 80.5226C164.964 80.5226 164.765 80.5721 164.593 80.6713C164.421 80.7704 164.287 80.9162 164.191 81.1093C164.095 81.3025 164.047 81.5431 164.047 81.8303V83.8589H163.358V79.9205H164.019V80.9687L163.911 80.7011C164.03 80.4431 164.214 80.2426 164.464 80.099C164.712 79.9554 165.002 79.8833 165.332 79.8833C165.695 79.8833 166.009 79.9773 166.272 80.1661C166.535 80.3491 166.707 80.629 166.789 81.0058L166.509 80.8863C166.624 80.5845 166.825 80.3418 167.112 80.1581C167.399 79.9751 167.733 79.8833 168.117 79.8833ZM176.174 83.8589V83.0265L176.138 82.8705V81.4512C176.138 81.1494 176.052 80.9162 175.88 80.7529C175.712 80.5845 175.458 80.5 175.119 80.5C174.894 80.5 174.674 80.54 174.458 80.6188C174.243 80.6931 174.061 80.7952 173.913 80.9235L173.626 80.3884C173.822 80.2251 174.056 80.1012 174.329 80.0174C174.607 79.9277 174.897 79.8833 175.198 79.8833C175.719 79.8833 176.121 80.0145 176.403 80.2776C176.686 80.54 176.827 80.941 176.827 81.4811V83.8589H176.174ZM174.925 83.9034C174.642 83.9034 174.394 83.8538 174.179 83.7547C173.968 83.6555 173.806 83.5199 173.69 83.3465C173.576 83.1679 173.518 82.9674 173.518 82.7444C173.518 82.5315 173.566 82.3383 173.662 82.1649C173.763 81.9914 173.922 81.8529 174.142 81.7486C174.367 81.6444 174.669 81.5926 175.047 81.5926H176.253V82.1051H175.076C174.731 82.1051 174.499 82.1649 174.379 82.2837C174.26 82.4025 174.2 82.5461 174.2 82.7145C174.2 82.9076 174.274 83.0636 174.422 83.1825C174.571 83.2969 174.776 83.3537 175.04 83.3537C175.298 83.3537 175.523 83.294 175.715 83.1752C175.91 83.0563 176.052 82.8829 176.138 82.6554L176.274 83.1453C176.183 83.3785 176.023 83.5644 175.794 83.7029C175.564 83.837 175.274 83.9034 174.925 83.9034ZM183.004 79.8833C183.315 79.8833 183.587 79.9452 183.822 80.0692C184.062 80.1931 184.248 80.3811 184.382 80.6341C184.516 80.8863 184.583 81.2063 184.583 81.5926V83.8589H183.894V81.6743C183.894 81.293 183.803 81.0058 183.621 80.8127C183.444 80.6188 183.193 80.5226 182.867 80.5226C182.624 80.5226 182.41 80.5721 182.229 80.6713C182.047 80.7704 181.906 80.9162 181.806 81.1093C181.71 81.3025 181.662 81.5431 181.662 81.8303V83.8589H180.973V79.9205H181.633V80.9832L181.526 80.7011C181.65 80.4431 181.841 80.2426 182.099 80.099C182.358 79.9554 182.66 79.8833 183.004 79.8833ZM193.627 83.8589V78.6572H194.215L197.539 82.9302H197.23V78.6572H197.948V83.8589H197.359L194.036 79.5859H194.344V83.8589H193.627ZM203.915 83.9034C203.509 83.9034 203.15 83.8166 202.839 83.6431C202.533 83.4704 202.293 83.232 202.121 82.9302C201.953 82.6277 201.869 82.2815 201.869 81.89C201.869 81.4986 201.951 81.1516 202.114 80.8491C202.281 80.5473 202.508 80.3119 202.796 80.1435C203.087 79.97 203.415 79.8833 203.779 79.8833C204.147 79.8833 204.473 79.9678 204.755 80.1362C205.037 80.3046 205.257 80.5422 205.415 80.8491C205.578 81.1516 205.659 81.5059 205.659 81.9119C205.659 81.9418 205.656 81.9768 205.652 82.0161C205.652 82.0555 205.65 82.0927 205.645 82.1277H202.408V81.6145H205.286L205.006 81.7931C205.011 81.5409 204.961 81.3149 204.855 81.1166C204.75 80.9191 204.604 80.7653 204.418 80.6559C204.236 80.5422 204.023 80.4854 203.779 80.4854C203.539 80.4854 203.327 80.5422 203.14 80.6559C202.953 80.7653 202.807 80.9213 202.702 81.1247C202.597 81.3229 202.544 81.5504 202.544 81.8084V81.9272C202.544 82.1896 202.602 82.4251 202.717 82.6328C202.836 82.8362 203.001 82.9944 203.212 83.1088C203.422 83.2225 203.664 83.2794 203.937 83.2794C204.161 83.2794 204.365 83.24 204.547 83.1606C204.734 83.0811 204.896 82.9623 205.035 82.8041L205.415 83.2648C205.243 83.4726 205.027 83.6307 204.769 83.7401C204.516 83.8494 204.231 83.9034 203.915 83.9034ZM211.181 83.9034C210.774 83.9034 210.415 83.8166 210.104 83.6431C209.798 83.4704 209.559 83.232 209.387 82.9302C209.219 82.6277 209.135 82.2815 209.135 81.89C209.135 81.4986 209.217 81.1516 209.379 80.8491C209.546 80.5473 209.774 80.3119 210.061 80.1435C210.353 79.97 210.681 79.8833 211.044 79.8833C211.413 79.8833 211.738 79.9678 212.02 80.1362C212.302 80.3046 212.522 80.5422 212.681 80.8491C212.843 81.1516 212.924 81.5059 212.924 81.9119C212.924 81.9418 212.922 81.9768 212.918 82.0161C212.918 82.0555 212.915 82.0927 212.911 82.1277H209.673V81.6145H212.552L212.272 81.7931C212.277 81.5409 212.226 81.3149 212.121 81.1166C212.016 80.9191 211.87 80.7653 211.683 80.6559C211.501 80.5422 211.288 80.4854 211.044 80.4854C210.805 80.4854 210.592 80.5422 210.405 80.6559C210.219 80.7653 210.073 80.9213 209.968 81.1247C209.862 81.3229 209.81 81.5504 209.81 81.8084V81.9272C209.81 82.1896 209.867 82.4251 209.982 82.6328C210.102 82.8362 210.267 82.9944 210.477 83.1088C210.688 83.2225 210.93 83.2794 211.202 83.2794C211.427 83.2794 211.63 83.24 211.812 83.1606C211.999 83.0811 212.161 82.9623 212.3 82.8041L212.681 83.2648C212.509 83.4726 212.293 83.6307 212.035 83.7401C211.781 83.8494 211.496 83.9034 211.181 83.9034ZM218.324 83.9034C217.956 83.9034 217.625 83.8195 217.334 83.6512C217.047 83.4828 216.819 83.2473 216.652 82.9448C216.484 82.643 216.4 82.291 216.4 81.89C216.4 81.4884 216.484 81.1392 216.652 80.8418C216.819 80.54 217.047 80.3046 217.334 80.1362C217.625 79.9678 217.956 79.8833 218.324 79.8833C218.645 79.8833 218.934 79.9576 219.193 80.1063C219.451 80.255 219.656 80.4781 219.81 80.7755C219.967 81.0722 220.047 81.4439 220.047 81.89C220.047 82.3354 219.97 82.7072 219.817 83.0046C219.669 83.302 219.465 83.5272 219.207 83.6803C218.949 83.829 218.654 83.9034 218.324 83.9034ZM218.382 83.2794C218.621 83.2794 218.836 83.2225 219.027 83.1088C219.224 82.9944 219.377 82.8333 219.487 82.6255C219.602 82.4127 219.659 82.167 219.659 81.89C219.659 81.6072 219.602 81.3645 219.487 81.1618C219.377 80.9534 219.224 80.7923 219.027 80.6785C218.836 80.5648 218.621 80.508 218.382 80.508C218.138 80.508 217.92 80.5648 217.728 80.6785C217.537 80.7923 217.384 80.9534 217.269 81.1618C217.155 81.3645 217.097 81.6072 217.097 81.89C217.097 82.167 217.155 82.4127 217.269 82.6255C217.384 82.8333 217.537 82.9944 217.728 83.1088C217.92 83.2225 218.138 83.2794 218.382 83.2794ZM219.681 83.8589V82.7961L219.724 81.882L219.652 80.9687V78.3452H220.341V83.8589H219.681ZM225.606 83.9034C225.29 83.9034 224.989 83.8589 224.702 83.77C224.42 83.6803 224.198 83.5717 224.034 83.4427L224.322 82.8778C224.484 82.9922 224.685 83.0884 224.925 83.1679C225.163 83.2473 225.408 83.2867 225.656 83.2867C225.977 83.2867 226.207 83.24 226.345 83.1453C226.489 83.0512 226.56 82.92 226.56 82.7516C226.56 82.6277 226.517 82.5315 226.431 82.4623C226.345 82.3923 226.231 82.3405 226.087 82.3063C225.948 82.2713 225.793 82.2414 225.62 82.2166C225.448 82.1867 225.276 82.1525 225.104 82.1124C224.932 82.0679 224.774 82.0089 224.63 81.9345C224.486 81.8551 224.372 81.7486 224.286 81.6145C224.2 81.476 224.157 81.293 224.157 81.0649C224.157 80.8272 224.221 80.6188 224.35 80.4409C224.479 80.2623 224.661 80.126 224.896 80.032C225.135 79.9328 225.418 79.8833 225.743 79.8833C225.992 79.8833 226.242 79.9153 226.496 79.9802C226.755 80.0393 226.965 80.126 227.128 80.2405L226.833 80.8047C226.661 80.6858 226.482 80.6042 226.295 80.5597C226.108 80.5153 225.922 80.4927 225.736 80.4927C225.434 80.4927 225.209 80.5452 225.061 80.6487C224.913 80.7478 224.838 80.8768 224.838 81.035C224.838 81.1691 224.881 81.2734 224.968 81.347C225.059 81.417 225.173 81.4709 225.312 81.511C225.456 81.5504 225.613 81.5853 225.786 81.6145C225.958 81.6393 226.13 81.6743 226.302 81.7187C226.474 81.7588 226.63 81.8157 226.769 81.89C226.913 81.9644 227.027 82.0679 227.113 82.202C227.204 82.3354 227.25 82.514 227.25 82.7371C227.25 82.9747 227.183 83.1803 227.049 83.3537C226.915 83.5272 226.726 83.6635 226.482 83.7627C226.238 83.8567 225.946 83.9034 225.606 83.9034Z" fill="#0A3D62"/>
<path d="M111.25 94.3452H165.25" stroke="#FED064" stroke-width="10"/>
</g>
</svg>
